<?xml version="1.0" encoding="UTF-8" standalone="no" ?>
<!DOCTYPE svg PUBLIC "-//W3C//DTD SVG 1.1//EN" "http://www.w3.org/Graphics/SVG/1.1/DTD/svg11.dtd">
<svg xmlns="http://www.w3.org/2000/svg" xmlns:xlink="http://www.w3.org/1999/xlink" version="1.1" width="451.32620025859705" height="406.10382606079247" viewBox="0 0 451.32620025859705 406.10382606079247" xml:space="preserve">
<desc>Created with Fabric.js 2.0.1</desc>
<defs>
</defs>
<g transform="translate(225.66310012929853 203.05191303039624)" style="">
	<g transform="translate(2.8422e-14 -2.8422e-14) scale(0.5798049476172534 0.5798049476172534)" style="">
	<g transform="translate(0 -73.8079185712605) scale(1.0834621356819911 1.0834621356819911)" style="">
	<path d="M 567.9997 22.41694 v 493.16612 c 0 6.06744 -2.21178 11.32788 -6.63533 15.78132 c -4.42355 4.45344 -9.68399 6.66521 -15.78132 6.63533 h -493.16612 c -6.06744 0 -11.32788 -2.21178 -15.78132 -6.63533 c -4.45344 -4.42355 -6.66521 -9.68399 -6.63533 -15.78132 v -493.16612 c 0 -6.06744 2.21178 -11.32788 6.63533 -15.78132 c 4.42355 -4.45344 9.68399 -6.66521 15.78132 -6.63533 h 493.16612 c 6.06744 0 11.32788 2.21178 15.78132 6.63533 c 4.45344 4.42355 6.66521 9.68399 6.63533 15.78132 z" style="stroke: rgb(123,125,123); stroke-width: 0; stroke-dasharray: none; stroke-linecap: round; stroke-linejoin: miter; stroke-miterlimit: 10; fill: rgb(241,194,125); fill-rule: nonzero; opacity: 1;" transform="translate(-129.9591690090757 0) scale(0.8522842065967737 0.8522842065967738) translate(-298.99998999999997, -268.99999999999994) " stroke-linecap="round" />
	<path d="M 567.9997 22.41694 v 493.16612 c 0 6.06744 -2.21178 11.32788 -6.63533 15.78132 c -4.42355 4.45344 -9.68399 6.66521 -15.78132 6.63533 h -493.16612 c -6.06744 0 -11.32788 -2.21178 -15.78132 -6.63533 c -4.45344 -4.42355 -6.66521 -9.68399 -6.63533 -15.78132 v -493.16612 c 0 -6.06744 2.21178 -11.32788 6.63533 -15.78132 c 4.42355 -4.45344 9.68399 -6.66521 15.78132 -6.63533 h 493.16612 c 6.06744 0 11.32788 2.21178 15.78132 6.63533 c 4.45344 4.42355 6.66521 9.68399 6.63533 15.78132 z" style="stroke: rgb(123,125,123); stroke-width: 0; stroke-dasharray: none; stroke-linecap: round; stroke-linejoin: miter; stroke-miterlimit: 10; fill: rgb(241,194,125); fill-rule: nonzero; opacity: 1;" transform="translate(129.9591690090757 0) scale(0.8522842065967737 0.8522842065967738) translate(-298.99998999999997, -268.99999999999994) " stroke-linecap="round" />
</g>
	<g transform="translate(0 -131.48876330736684) scale(1 1.0649282235618063)" style="">
	<g transform="translate(-5.6843e-14 -2.8422e-14) scale(1.0834621356819911 0.895835931632701)" style="">
	<path d="M 567.9997 22.41694 v 493.16612 c 0 6.06744 -2.21178 11.32788 -6.63533 15.78132 c -4.42355 4.45344 -9.68399 6.66521 -15.78132 6.63533 h -493.16612 c -6.06744 0 -11.32788 -2.21178 -15.78132 -6.63533 c -4.45344 -4.42355 -6.66521 -9.68399 -6.63533 -15.78132 v -493.16612 c 0 -6.06744 2.21178 -11.32788 6.63533 -15.78132 c 4.42355 -4.45344 9.68399 -6.66521 15.78132 -6.63533 h 493.16612 c 6.06744 0 11.32788 2.21178 15.78132 6.63533 c 4.45344 4.42355 6.66521 9.68399 6.63533 15.78132 z" style="stroke: rgb(123,125,123); stroke-width: 0; stroke-dasharray: none; stroke-linecap: round; stroke-linejoin: miter; stroke-miterlimit: 10; fill: rgb(34,51,76); fill-rule: nonzero; opacity: 1;" transform="translate(-129.9591690090757 0) scale(0.8522842065967737 0.8522842065967738) translate(-298.99998999999997, -268.99999999999994) " stroke-linecap="round" />
	<path d="M 567.9997 22.41694 v 493.16612 c 0 6.06744 -2.21178 11.32788 -6.63533 15.78132 c -4.42355 4.45344 -9.68399 6.66521 -15.78132 6.63533 h -493.16612 c -6.06744 0 -11.32788 -2.21178 -15.78132 -6.63533 c -4.45344 -4.42355 -6.66521 -9.68399 -6.63533 -15.78132 v -493.16612 c 0 -6.06744 2.21178 -11.32788 6.63533 -15.78132 c 4.42355 -4.45344 9.68399 -6.66521 15.78132 -6.63533 h 493.16612 c 6.06744 0 11.32788 2.21178 15.78132 6.63533 c 4.45344 4.42355 6.66521 9.68399 6.63533 15.78132 z" style="stroke: rgb(123,125,123); stroke-width: 0; stroke-dasharray: none; stroke-linecap: round; stroke-linejoin: miter; stroke-miterlimit: 10; fill: rgb(34,51,76); fill-rule: nonzero; opacity: 1;" transform="translate(129.9591690090757 0) scale(0.8522842065967737 0.8522842065967738) translate(-298.99998999999997, -268.99999999999994) " stroke-linecap="round" />
</g>
	<path d="M 30 0 h 538 v 538 h -538 z" style="stroke: rgb(123,125,123); stroke-width: 0; stroke-dasharray: none; stroke-linecap: butt; stroke-linejoin: miter; stroke-miterlimit: 10; fill: rgb(34,51,76); fill-rule: nonzero; opacity: 1;" transform="translate(-5.6843e-14 155.38334021923532) scale(1.446859476546456 0.18587360594795535) translate(-299, -269) " stroke-linecap="round" />
</g>
	<g transform="translate(0 262.3993603849667) scale(0.869730889374486 0.869730889374486)" style="">
	<g transform="translate(-5.6843e-14 81.681710282013)" style="">
	<path d="M 30 0 h 538 v 538 h -538 z" style="stroke: rgb(123,125,123); stroke-width: 0; stroke-dasharray: none; stroke-linecap: butt; stroke-linejoin: miter; stroke-miterlimit: 10; fill: rgb(255,219,172); fill-rule: nonzero; opacity: 1;" transform="translate(-0.7154751251071048 -2.8422e-14) scale(1.0417168739050549 0.07166602572319787) translate(-299, -269) " stroke-linecap="round" />
	<path d="M 568 269 c 0 48.80042 -12.02827 93.80559 -36.08482 135.0155 c -24.05655 41.20991 -56.68977 73.84314 -97.89968 97.89968 c -41.20991 24.05655 -86.21508 36.08482 -135.0155 36.08482 c -48.80042 0 -93.80559 -12.02827 -135.0155 -36.08482 c -41.20991 -24.05655 -73.84314 -56.68977 -97.89968 -97.89968 c -24.05655 -41.20991 -36.08482 -86.21508 -36.08482 -135.0155 c 0 -48.80042 12.02827 -93.80559 36.08482 -135.0155 c 24.05655 -41.20991 56.68977 -73.84314 97.89968 -97.89968 c 41.20991 -24.05655 86.21508 -36.08482 135.0155 -36.08482 c 48.80042 0 93.80559 12.02827 135.0155 36.08482 c 41.20991 24.05655 73.84314 56.68977 97.89968 97.89968 c 24.05655 41.20991 36.08482 86.21508 36.08482 135.0155 z" style="stroke: rgb(123,125,123); stroke-width: 0; stroke-dasharray: none; stroke-linecap: round; stroke-linejoin: miter; stroke-miterlimit: 10; fill: rgb(255,219,172); fill-rule: nonzero; opacity: 1;" transform="translate(279.76530957653097 -2.8422e-14) scale(0.07166602572319787 0.07166602572319787) translate(-299, -269) " stroke-linecap="round" />
	<path d="M 568 269 c 0 48.80042 -12.02827 93.80559 -36.08482 135.0155 c -24.05655 41.20991 -56.68977 73.84314 -97.89968 97.89968 c -41.20991 24.05655 -86.21508 36.08482 -135.0155 36.08482 c -48.80042 0 -93.80559 -12.02827 -135.0155 -36.08482 c -41.20991 -24.05655 -73.84314 -56.68977 -97.89968 -97.89968 c -24.05655 -41.20991 -36.08482 -86.21508 -36.08482 -135.0155 c 0 -48.80042 12.02827 -93.80559 36.08482 -135.0155 c 24.05655 -41.20991 56.68977 -73.84314 97.89968 -97.89968 c 41.20991 -24.05655 86.21508 -36.08482 135.0155 -36.08482 c 48.80042 0 93.80559 12.02827 135.0155 36.08482 c 41.20991 24.05655 73.84314 56.68977 97.89968 97.89968 c 24.05655 41.20991 36.08482 86.21508 36.08482 135.0155 z" style="stroke: rgb(123,125,123); stroke-width: 0; stroke-dasharray: none; stroke-linecap: round; stroke-linejoin: miter; stroke-miterlimit: 10; fill: rgb(255,219,172); fill-rule: nonzero; opacity: 1;" transform="translate(-279.7653095765311 -2.8422e-14) scale(0.07166602572319787 0.07166602572319787) translate(-299, -269) " stroke-linecap="round" />
</g>
	<path d="M 74.75 153.25 h 448.5 l 74.75 231.5 h -598 z" style="stroke: rgb(123,125,123); stroke-width: 0; stroke-dasharray: none; stroke-linecap: butt; stroke-linejoin: miter; stroke-miterlimit: 10; fill: rgb(241,194,125); fill-rule: nonzero; opacity: 1;" transform="translate(-5.6843e-14 -19.278160919540255) scale(0.7056735229547559 0.7056735229547559) translate(-299, -269) " stroke-linecap="round" />
	<path d="M 19.62187 239.72292 h 558.75625 l 19.62188 58.55417 h -598 z" style="stroke: rgb(123,125,123); stroke-width: 0; stroke-dasharray: none; stroke-linecap: round; stroke-linejoin: miter; stroke-miterlimit: 10; fill: rgb(224,172,105); fill-rule: nonzero; opacity: 1;" transform="translate(-5.6843e-14 -84.38368388705906) scale(0.5661829828514072 0.5661829828514072) translate(-299.0000000000001, -269.000005) " stroke-linecap="round" />
</g>
</g>
</g>
</svg>
